# Blender 5.0.1
# www.blender.org
mtllib butterfly.mtl
o Plane
v 1.000000 0.000000 -0.000000
v -1.000000 0.000000 0.000000
v 0.755997 0.046774 0.650989
v -0.753871 0.046737 0.650989
v 0.999967 -0.000000 -0.499963
v 0.425438 0.092887 1.020510
v -1.000003 0.000000 -0.500003
v -0.427379 0.092837 1.020845
v 0.000272 0.040088 -0.000690
v 0.000006 0.000453 0.000083
v 0.000670 0.040063 -0.002701
v 0.000004 0.015742 0.000005
v -0.006761 -0.000718 0.994907
v 0.216497 0.255943 0.151497
v -0.212811 0.255771 0.151497
v -0.727441 0.000000 0.272559
v -0.730115 0.014275 0.267338
v 0.726817 0.000000 0.273182
v 0.716593 0.014550 0.267338
v -0.732005 0.000000 -0.500003
v -0.163063 0.148184 0.562813
v 0.150629 0.147796 0.562813
v 0.732004 -0.000000 -0.499963
v 1.000053 0.005344 -0.004473
v -0.999947 0.005344 -0.004473
v 0.756050 0.052118 0.646516
v -0.753818 0.052081 0.646516
v 1.000020 0.005344 -0.504436
v 0.425491 0.098231 1.016037
v -0.999950 0.005344 -0.504476
v -0.427326 0.098180 1.016372
v 0.000325 0.045432 -0.005163
v 0.000059 0.013137 -0.004390
v 0.000723 0.045406 -0.007174
v 0.000176 0.036645 -0.004467
v -0.006708 0.004625 0.990434
v 0.216550 0.261287 0.147024
v -0.212758 0.261114 0.147024
v -0.727388 0.005344 0.268086
v -0.730062 0.019619 0.262865
v 0.726870 0.005344 0.268709
v 0.716646 0.019893 0.262865
v -0.731952 0.005344 -0.504476
v -0.163010 0.153527 0.558340
v 0.150682 0.153140 0.558340
v 0.732057 0.005344 -0.504436
vn 0.7271 -0.6837 -0.0633
vn -0.0396 0.9984 0.0405
vn 0.1468 0.9824 -0.1151
vn 0.0005 -1.0000 -0.0005
vn 0.0002 -1.0000 -0.0012
vn -0.0202 -0.9990 -0.0411
vn -0.0045 0.9999 0.0165
vn 0.0336 -0.9957 0.0863
vn -0.0342 -0.9956 0.0871
vn -0.0341 0.9994 0.0002
vn 0.0041 0.9999 0.0166
vn 0.0396 0.9984 0.0412
vn -0.0002 -1.0000 -0.0012
vn -0.3447 -0.7473 0.5681
vn 0.0342 0.9994 0.0002
vn -0.7381 -0.6692 -0.0858
vn -0.1485 0.9821 -0.1156
vn 0.0202 -0.9990 -0.0407
vn -0.0005 -1.0000 -0.0005
vn 0.3463 -0.7470 0.5675
vn -0.7271 0.6837 0.0633
vn 0.0396 -0.9984 -0.0405
vn -0.1468 -0.9824 0.1151
vn -0.0078 0.9999 0.0078
vn -0.0075 0.9999 0.0085
vn 0.0202 0.9990 0.0411
vn -0.0113 -0.9994 -0.0322
vn 0.0074 0.9999 -0.0154
vn 0.0341 -0.9994 -0.0002
vn 0.0116 -0.9994 -0.0321
vn -0.0396 -0.9984 -0.0412
vn 0.0075 0.9999 0.0086
vn 0.3447 0.7473 -0.5681
vn -0.0342 -0.9994 -0.0002
vn 0.7381 0.6692 0.0858
vn 0.1485 -0.9821 0.1156
vn -0.0202 0.9990 0.0407
vn 0.0078 0.9999 0.0078
vn -0.3463 0.7470 -0.5675
vn -0.9781 0.1392 0.1547
vn 0.7513 -0.4280 -0.5024
vn -0.6892 -0.4611 -0.5590
vn 1.0000 -0.0099 -0.0000
vn -1.0000 0.0100 0.0001
vn 0.6906 -0.4683 -0.5512
vn -0.0000 0.6419 0.7668
vn -0.0019 -0.4445 -0.8958
vn -0.7867 0.4008 0.4696
vn -0.7698 -0.4052 -0.4932
vn 0.7908 0.3883 0.4732
vn 0.0019 -0.4445 -0.8958
vn 0.9685 0.1542 0.1956
vn 0.6104 0.5049 0.6104
vn -0.6059 -0.5071 -0.6130
vn 0.6038 0.5081 0.6142
vn 0.9916 -0.0888 -0.0944
vn 0.2548 -0.6222 -0.7403
vn -0.4886 -0.5572 -0.6714
vn -0.9521 -0.1908 -0.2392
vn -0.9567 0.1924 0.2185
vn -0.4845 0.5643 0.6684
vn -0.2527 -0.6196 -0.7431
vn -0.6021 0.5160 0.6093
vn 0.9975 0.0390 0.0585
vn 0.6066 -0.5138 -0.6066
vn 0.6072 -0.5135 -0.6063
vn -0.0083 0.9999 -0.0144
vt 0.000000 0.500000
vt 0.000000 0.765792
vt -0.000009 0.500191
vt 0.863721 0.136279
vt 0.500000 0.500000
vt 1.000009 0.500206
vt 0.000000 1.000000
vt 0.135472 0.864509
vt 1.000000 0.000000
vt 0.500000 0.000000
vt 0.500000 1.000000
vt 0.863614 0.862724
vt 1.000000 1.000000
vt 1.000000 0.133999
vt 0.136591 0.136591
vt 1.000000 0.499772
vt 0.000000 0.133981
vt 0.000000 0.000000
vt 1.000000 0.766372
s 0
usemtl Material
f 14/1/1 22/2/1 9/3/1
f 16/4/2 13/5/2 11/6/2
f 9/3/3 22/2/3 6/7/3 3/7/3 19/8/3
f 16/4/4 2/9/4 10/10/4
f 13/5/5 16/4/5 10/10/5
f 19/8/6 13/5/6 9/3/6
f 13/5/7 19/8/7 12/11/7
f 17/12/8 12/11/8 4/13/8
f 19/8/9 3/7/9 12/11/9
f 16/4/10 11/6/10 20/14/10 7/9/10 2/9/10
f 13/5/11 12/11/11 17/12/11
f 18/15/12 9/3/12 13/5/12
f 10/10/13 18/15/13 13/5/13
f 11/6/14 15/16/14 20/14/14
f 23/17/15 9/3/15 18/15/15 1/18/15 5/18/15
f 11/6/16 21/19/16 15/16/16
f 17/12/17 4/13/17 8/13/17 21/19/17 11/6/17
f 17/12/18 11/6/18 13/5/18
f 10/10/19 1/18/19 18/15/19
f 23/17/20 14/1/20 9/3/20
f 37/1/21 32/3/21 45/2/21
f 39/4/22 34/6/22 36/5/22
f 32/3/23 42/8/23 26/7/23 29/7/23 45/2/23
f 39/4/24 33/10/24 25/9/24
f 36/5/25 33/10/25 39/4/25
f 42/8/26 32/3/26 36/5/26
f 36/5/27 35/11/27 42/8/27
f 4/13/28 12/11/28 35/11/28 40/12/28 27/13/28
f 39/4/29 25/9/29 30/9/29 43/14/29 34/6/29
f 36/5/30 40/12/30 35/11/30
f 41/15/31 36/5/31 32/3/31
f 33/10/32 36/5/32 41/15/32
f 34/6/33 43/14/33 38/16/33
f 46/17/34 28/18/34 24/18/34 41/15/34 32/3/34
f 34/6/35 38/16/35 44/19/35
f 40/12/36 34/6/36 44/19/36 31/13/36 27/13/36
f 40/12/37 36/5/37 34/6/37
f 33/10/38 41/15/38 24/18/38
f 46/17/39 32/3/39 37/1/39
f 15/16/40 21/19/40 44/19/40 38/16/40
f 6/7/41 22/2/41 45/2/41 29/7/41
f 3/7/42 6/7/42 29/7/42 26/7/42
f 2/9/43 7/9/43 30/9/43 25/9/43
f 5/18/44 1/18/44 24/18/44 28/18/44
f 8/13/45 4/13/45 27/13/45 31/13/45
f 23/17/46 5/18/46 28/18/46 46/17/46
f 1/18/47 10/10/47 33/10/47 24/18/47
f 20/14/48 15/16/48 38/16/48 43/14/48
f 21/19/49 8/13/49 31/13/49 44/19/49
f 14/1/50 23/17/50 46/17/50 37/1/50
f 10/10/51 2/9/51 25/9/51 33/10/51
f 22/2/52 14/1/52 37/1/52 45/2/52
f 7/9/46 20/14/46 43/14/46 30/9/46
f 41/18/53 18/18/53 1/18/53 24/18/53
f 42/18/54 19/18/54 13/18/54 36/18/54
f 36/18/55 13/18/55 18/18/55 41/18/55
f 26/7/56 3/7/56 19/8/56 42/18/56
f 42/18/57 19/18/57 9/18/57 32/18/57
f 9/18/58 32/18/58 46/18/58 23/18/58
f 21/18/59 44/18/59 34/18/59 11/18/59
f 32/18/60 9/18/60 22/18/60 45/18/60
f 43/18/61 20/18/61 11/18/61 34/18/61
f 17/18/62 40/18/62 34/18/62 11/18/62
f 40/18/63 17/18/63 13/18/63 36/18/63
f 27/18/64 4/18/64 17/18/64 40/18/64
f 39/18/65 16/18/65 2/18/65 25/18/65
f 36/18/66 13/18/66 16/18/66 39/18/66
f 12/11/67 3/7/67 26/7/67 42/8/67 35/11/67
