# Blender 5.0.1
# www.blender.org
mtllib envelope.mtl
o Plane
v 0.999560 0.992392 1.499673
v 0.999560 0.992392 1.499673
v 0.999560 0.992392 1.499673
v -1.000440 0.992392 1.499673
v -1.000440 0.992392 1.499673
v -1.000440 0.992392 1.499673
v 0.993927 0.992392 -1.500327
v 0.993927 0.992392 -1.500327
v 0.993927 0.992392 -1.500327
v -1.006073 0.992392 -1.500327
v -1.006073 0.992392 -1.500327
v -1.006073 0.992392 -1.500327
v 0.994528 0.982205 1.499357
v 0.994528 0.982205 1.499357
v 0.994528 0.982205 1.499357
v -1.005473 0.982206 1.499357
v -1.005473 0.982206 1.499357
v -1.005473 0.982206 1.499357
v 0.988894 0.982205 -1.500644
v 0.988894 0.982205 -1.500644
v 0.988894 0.982205 -1.500644
v -1.011106 0.982205 -1.500644
v -1.011106 0.982205 -1.500644
v -1.011106 0.982205 -1.500644
vn -0.0000 1.0000 -0.0000
vn -0.0000 -1.0000 -0.0000
vn -0.8966 0.4429 0.0017
vn -0.0000 -0.0311 0.9995
vn 0.8966 -0.4429 -0.0017
vn -0.0000 0.0311 -0.9995
vt 1.000000 1.000000
vt 1.000000 0.000000
vt 0.000000 0.000000
vt 0.000000 1.000000
s 0
usemtl Material.001
f 4/1/1 1/2/1 7/3/1
f 4/1/1 7/3/1 10/4/1
f 16/1/2 22/4/2 19/3/2
f 16/1/2 19/3/2 13/2/2
f 5/1/3 11/4/3 23/4/3
f 5/1/3 23/4/3 17/1/3
f 2/2/4 6/1/4 18/1/4
f 2/2/4 18/1/4 14/2/4
f 8/3/5 3/2/5 15/2/5
f 8/3/5 15/2/5 20/3/5
f 12/4/6 9/3/6 21/3/6
f 12/4/6 21/3/6 24/4/6
o Plane.001
v 1.005033 1.002840 1.500317
v -0.994967 1.002840 1.500317
v 0.999399 1.002839 -1.499683
v -1.000601 1.002839 -1.499683
v 1.000000 0.992653 1.500000
v -1.000000 0.992653 1.500000
v 0.994366 0.992652 -1.500000
v -1.005634 0.992652 -1.500000
vn -0.0000 1.0000 -0.0000
vn -0.0000 -1.0000 -0.0000
vn -0.8966 0.4429 0.0017
vn -0.0000 -0.0311 0.9995
vn 0.8966 -0.4429 -0.0017
vn -0.0000 0.0311 -0.9995
vt 1.000000 1.000000
vt 1.000000 0.000000
vt 0.000000 0.000000
vt 0.000000 1.000000
s 1
usemtl Material.002
f 26/5/7 25/6/7 27/7/7 28/8/7
f 30/5/8 32/8/8 31/7/8 29/6/8
f 26/5/9 28/8/9 32/8/9 30/5/9
f 25/6/10 26/5/10 30/5/10 29/6/10
f 27/7/11 25/6/11 29/6/11 31/7/11
f 28/8/12 27/7/12 31/7/12 32/8/12
